<?xml version="1.0" encoding="UTF-8" standalone="no"?>
<!DOCTYPE svg PUBLIC "-//W3C//DTD SVG 1.1//EN" "http://www.w3.org/Graphics/SVG/1.1/DTD/svg11.dtd">
<svg width="100%" height="100%" viewBox="0 0 185 185" version="1.1" xmlns="http://www.w3.org/2000/svg" xmlns:xlink="http://www.w3.org/1999/xlink" xml:space="preserve" xmlns:serif="http://www.serif.com/" style="fill-rule:evenodd;clip-rule:evenodd;stroke-linejoin:round;stroke-miterlimit:1.41421;">
    <path d="M169.045,15.57C159.005,5.53 145.656,0 131.458,0C117.259,0 103.91,5.53 93.87,15.57C77.131,32.31 73.919,57.525 84.219,77.526C81.236,80.94 81.408,86.526 84.297,91.708L70.507,105.498L67.431,102.422C66.103,101.094 63.951,101.094 62.623,102.422L3.636,161.409C-1.212,166.257 -1.212,174.117 3.636,178.965L5.651,180.98C10.499,185.828 18.359,185.828 23.207,180.98L82.195,121.992C83.523,120.664 83.523,118.512 82.195,117.184L79.119,114.108L92.909,100.318C98.083,103.203 103.661,103.378 107.077,100.408C114.525,104.262 122.832,106.314 131.459,106.314C145.657,106.314 159.006,100.785 169.046,90.745C179.086,80.705 184.616,67.356 184.616,53.158C184.616,38.96 179.085,25.61 169.045,15.57ZM161.975,83.674C153.824,91.825 142.986,96.315 131.458,96.315C119.93,96.315 109.092,91.826 100.94,83.674C84.114,66.847 84.114,39.468 100.94,22.641C109.092,14.49 119.93,10 131.458,10C142.985,10 153.823,14.489 161.975,22.641C170.127,30.793 174.616,41.63 174.616,53.158C174.615,64.685 170.126,75.523 161.975,83.674Z" style="fill:rgb(244,227,178);fill-rule:nonzero;"/>
</svg>
